# xmcd CD database file
#
# Track frame offsets:
#	150
#	16204
#	30604
#	44164
#	68548
#	87100
#	101549
#	122148
#	137445
#	154776
#	166840
#
# Disc length: 2395 seconds
#
# Revision: 2
# Processed by: cddbd v1.5.2PL0 Copyright (c) Steve Scherf et al.
# Submitted via: CDex 1.51
#
DISCID=8209590b
DTITLE=JOHN BRIM And PINETOP PERKINS - Chicago Blues Session 12
DYEAR=1989
DGENRE=East Texas Blues
TTITLE0=I'm Gonna Let You Go
TTITLE1=Take It Easy Baby
TTITLE2=Let Me Hold You
TTITLE3=High Heel Sneakers
TTITLE4=Driving Wheel
TTITLE5=Naptown
TTITLE6=Going Down Slow
TTITLE7=Call Me Easy Papa
TTITLE8=How Long
TTITLE9=You Put the Heart on Me
TTITLE10=Movin' Out
EXTD=Wolf Records 120.858 CD YEAR: 1989
EXTT0=
EXTT1=
EXTT2=
EXTT3=
EXTT4=
EXTT5=
EXTT6=
EXTT7=
EXTT8=
EXTT9=
EXTT10=
PLAYORDER=
